<svg width="157" height="37" viewBox="0 0 157 37" fill="none" xmlns="http://www.w3.org/2000/svg">
<rect x="0.5" y="0.5" width="156" height="36" fill="#B5B5B5" stroke="black"/>
<rect x="4.5" y="4.5" width="148" height="28" fill="#B5B5B5" stroke="black"/>
<path d="M45.1885 17.5215C45.4082 17.5898 45.6084 17.6875 45.7891 17.8145C45.9697 17.9414 46.1235 18.105 46.2505 18.3052C46.3774 18.5005 46.4751 18.7324 46.5435 19.001C46.6118 19.2695 46.646 19.5771 46.646 19.9238V20.4512C46.646 22.1504 45.7964 23 44.0972 23H38.3477V12.4971H43.7969C45.4961 12.4971 46.3457 13.3491 46.3457 15.0532V15.2437C46.3457 15.8345 46.2505 16.3179 46.0601 16.6938C45.8745 17.0649 45.584 17.3408 45.1885 17.5215ZM39.8198 18.4224V21.5278H44.0532C44.4487 21.5278 44.7344 21.4351 44.9102 21.2495C45.0859 21.064 45.1738 20.7734 45.1738 20.3779V19.5649C45.1738 19.1646 45.0859 18.874 44.9102 18.6934C44.7344 18.5127 44.4487 18.4224 44.0532 18.4224H39.8198ZM39.8198 13.9692V16.9575H43.8555C44.2168 16.9429 44.4756 16.8452 44.6318 16.6646C44.793 16.479 44.8735 16.1958 44.8735 15.8149V15.1265C44.8735 14.7261 44.7856 14.4331 44.6099 14.2476C44.4341 14.062 44.1484 13.9692 43.7529 13.9692H39.8198ZM48.748 19.5942C48.748 19.394 48.7847 19.2085 48.8579 19.0376C48.936 18.8618 49.0386 18.708 49.1655 18.5762C49.2974 18.4443 49.4512 18.3418 49.627 18.2686C49.8027 18.1904 49.9883 18.1514 50.1836 18.1514H53.9043V16.6426H49.1948V15.1997H53.9043C54.1045 15.1997 54.2925 15.2388 54.4683 15.3169C54.644 15.3901 54.7954 15.4927 54.9224 15.6245C55.0542 15.7515 55.1567 15.9028 55.23 16.0786C55.3081 16.2544 55.3472 16.4424 55.3472 16.6426V23H53.9043V21.6816C53.8896 21.8623 53.8408 22.0332 53.7578 22.1943C53.6748 22.3555 53.5674 22.4971 53.4355 22.6191C53.3086 22.7363 53.1621 22.8291 52.9961 22.8975C52.8301 22.9658 52.6543 23 52.4688 23H50.1836C49.9883 23 49.8027 22.9634 49.627 22.8901C49.4512 22.812 49.2974 22.7095 49.1655 22.5825C49.0386 22.4507 48.936 22.2969 48.8579 22.1211C48.7847 21.9453 48.748 21.7573 48.748 21.5571V19.5942ZM50.1836 21.5571H53.9043V19.5942H50.1836V21.5571ZM59.1924 16.6426V21.5571H62.9131V20.2388H64.356V21.5571C64.356 21.7573 64.3169 21.9453 64.2388 22.1211C64.1655 22.2969 64.063 22.4507 63.9312 22.5825C63.8042 22.7095 63.6528 22.812 63.4771 22.8901C63.3013 22.9634 63.1133 23 62.9131 23H59.1924C58.9971 23 58.8115 22.9634 58.6357 22.8901C58.46 22.812 58.3062 22.7095 58.1743 22.5825C58.0474 22.4507 57.9448 22.2969 57.8667 22.1211C57.7935 21.9453 57.7568 21.7573 57.7568 21.5571V16.6426C57.7568 16.4424 57.7935 16.2544 57.8667 16.0786C57.9448 15.9028 58.0474 15.7515 58.1743 15.6245C58.3062 15.4927 58.46 15.3901 58.6357 15.3169C58.8115 15.2388 58.9971 15.1997 59.1924 15.1997H62.9131C63.1133 15.1997 63.3013 15.2388 63.4771 15.3169C63.6528 15.3901 63.8042 15.4927 63.9312 15.6245C64.063 15.7515 64.1655 15.9028 64.2388 16.0786C64.3169 16.2544 64.356 16.4424 64.356 16.6426V17.9609H62.9131V16.6426H59.1924ZM71.9219 23L68.2012 19.6675V23H66.7656V12.1968H68.2012V18.2759L71.6216 15.1997H73.6504L69.4609 18.9644L73.9507 23H71.9219ZM76.6167 23L74.0972 15.1997H75.5547L77.4004 21.0811L79.1216 15.1997H80.5938L82.3149 21.0811L84.1606 15.1997H85.6182L83.0986 23H81.5972L79.854 17.2725L78.1182 23H76.6167ZM87.127 19.5942C87.127 19.394 87.1636 19.2085 87.2368 19.0376C87.3149 18.8618 87.4175 18.708 87.5444 18.5762C87.6763 18.4443 87.8301 18.3418 88.0059 18.2686C88.1816 18.1904 88.3672 18.1514 88.5625 18.1514H92.2832V16.6426H87.5737V15.1997H92.2832C92.4834 15.1997 92.6714 15.2388 92.8472 15.3169C93.0229 15.3901 93.1743 15.4927 93.3013 15.6245C93.4331 15.7515 93.5356 15.9028 93.6089 16.0786C93.687 16.2544 93.7261 16.4424 93.7261 16.6426V23H92.2832V21.6816C92.2686 21.8623 92.2197 22.0332 92.1367 22.1943C92.0537 22.3555 91.9463 22.4971 91.8145 22.6191C91.6875 22.7363 91.541 22.8291 91.375 22.8975C91.209 22.9658 91.0332 23 90.8477 23H88.5625C88.3672 23 88.1816 22.9634 88.0059 22.8901C87.8301 22.812 87.6763 22.7095 87.5444 22.5825C87.4175 22.4507 87.3149 22.2969 87.2368 22.1211C87.1636 21.9453 87.127 21.7573 87.127 21.5571V19.5942ZM88.5625 21.5571H92.2832V19.5942H88.5625V21.5571ZM97.5713 16.6426V23H96.1357V15.1997H97.5713V16.5767C97.5811 16.3862 97.625 16.208 97.7031 16.042C97.7812 15.8711 97.8838 15.7246 98.0107 15.6025C98.1426 15.4756 98.2939 15.3779 98.4648 15.3096C98.6357 15.2363 98.8188 15.1997 99.0142 15.1997H100.545C100.745 15.1997 100.931 15.2388 101.102 15.3169C101.277 15.3901 101.431 15.4927 101.563 15.6245C101.695 15.7515 101.797 15.9028 101.871 16.0786C101.949 16.2544 101.988 16.4424 101.988 16.6426V17.9609H100.545V16.6426H97.5713ZM103.782 16.6426C103.782 16.4424 103.819 16.2544 103.892 16.0786C103.97 15.9028 104.073 15.7515 104.2 15.6245C104.332 15.4927 104.485 15.3901 104.661 15.3169C104.837 15.2388 105.022 15.1997 105.218 15.1997H109.239V12.1968H110.682V23H109.239V21.6816C109.224 21.8623 109.175 22.0332 109.092 22.1943C109.009 22.3555 108.902 22.4971 108.77 22.6191C108.643 22.7363 108.497 22.8291 108.331 22.8975C108.165 22.9658 107.989 23 107.803 23H105.218C105.022 23 104.837 22.9634 104.661 22.8901C104.485 22.812 104.332 22.7095 104.2 22.5825C104.073 22.4507 103.97 22.2969 103.892 22.1211C103.819 21.9453 103.782 21.7573 103.782 21.5571V16.6426ZM105.218 21.5571H109.239V16.6426H105.218V21.5571ZM117.793 21.5571V19.748H114.373C114.173 19.748 113.985 19.7114 113.809 19.6382C113.633 19.5601 113.479 19.4575 113.348 19.3306C113.221 19.1987 113.118 19.0449 113.04 18.8691C112.967 18.6934 112.93 18.5054 112.93 18.3052V16.6426C112.93 16.4424 112.967 16.2544 113.04 16.0786C113.118 15.9028 113.221 15.7515 113.348 15.6245C113.479 15.4927 113.633 15.3901 113.809 15.3169C113.985 15.2388 114.173 15.1997 114.373 15.1997H118.936V16.6426H114.373V18.3052H117.793C117.994 18.3052 118.179 18.3442 118.35 18.4224C118.526 18.4956 118.68 18.5981 118.812 18.73C118.943 18.8569 119.046 19.0083 119.119 19.1841C119.197 19.3599 119.236 19.5479 119.236 19.748V21.5571C119.236 21.7573 119.197 21.9453 119.119 22.1211C119.046 22.2969 118.943 22.4507 118.812 22.5825C118.68 22.7095 118.526 22.812 118.35 22.8901C118.179 22.9634 117.994 23 117.793 23H112.93V21.5571H117.793Z" fill="black"/>
</svg>
