<svg width="390" height="844" viewBox="0 0 390 844" fill="none" xmlns="http://www.w3.org/2000/svg">
<rect width="390" height="844" fill="#D0D0D0"/>
<path d="M102.908 34.2266V52H98.6357V34.2266H102.908ZM111.697 52H107.754L107.779 48.7041H111.697C112.511 48.7041 113.199 48.5088 113.76 48.1182C114.33 47.7275 114.761 47.1457 115.054 46.3726C115.355 45.5913 115.506 44.631 115.506 43.4917V42.7227C115.506 41.8682 115.42 41.1195 115.25 40.4766C115.087 39.8255 114.843 39.2843 114.517 38.853C114.192 38.4136 113.785 38.084 113.296 37.8643C112.816 37.6445 112.263 37.5347 111.636 37.5347H107.681V34.2266H111.636C112.841 34.2266 113.943 34.4341 114.944 34.8491C115.953 35.256 116.824 35.842 117.557 36.6069C118.297 37.3638 118.867 38.263 119.266 39.3047C119.673 40.3382 119.876 41.4857 119.876 42.7471V43.4917C119.876 44.745 119.673 45.8924 119.266 46.9341C118.867 47.9757 118.301 48.875 117.569 49.6318C116.836 50.3887 115.97 50.9746 114.969 51.3896C113.976 51.7965 112.885 52 111.697 52ZM110.208 34.2266V52H105.923V34.2266H110.208ZM134.341 48.7041V52H124.869V48.7041H134.341ZM126.395 34.2266V52H122.11V34.2266H126.395ZM133.121 41.2822V44.4683H124.869V41.2822H133.121ZM134.378 34.2266V37.5347H124.869V34.2266H134.378ZM143.631 37.9619L139.297 52H134.695L141.226 34.2266H144.144L143.631 37.9619ZM147.22 52L142.874 37.9619L142.312 34.2266H145.267L151.834 52H147.22ZM147.049 45.3716V48.6797H137.93V45.3716H147.049ZM164.883 48.7041V52H155.899V48.7041H164.883ZM157.425 34.2266V52H153.14V34.2266H157.425ZM171.243 34.2266V52H166.971V34.2266H171.243ZM183.414 47.2759C183.414 46.9992 183.373 46.751 183.292 46.5312C183.21 46.3034 183.06 46.0918 182.84 45.8965C182.62 45.7012 182.303 45.5059 181.888 45.3105C181.481 45.1071 180.944 44.8955 180.276 44.6758C179.495 44.4154 178.742 44.1224 178.018 43.7969C177.294 43.4632 176.647 43.0767 176.077 42.6372C175.507 42.1896 175.056 41.6688 174.722 41.0747C174.389 40.4725 174.222 39.7726 174.222 38.9751C174.222 38.2101 174.393 37.5225 174.734 36.9121C175.076 36.2936 175.552 35.7687 176.163 35.3374C176.781 34.8979 177.505 34.5643 178.335 34.3364C179.166 34.1004 180.073 33.9824 181.058 33.9824C182.36 33.9824 183.507 34.2103 184.5 34.666C185.501 35.1136 186.282 35.7524 186.844 36.5825C187.413 37.4045 187.698 38.377 187.698 39.5H183.438C183.438 39.0524 183.344 38.6577 183.157 38.3159C182.978 37.9741 182.706 37.7056 182.339 37.5103C181.973 37.3149 181.513 37.2173 180.96 37.2173C180.423 37.2173 179.971 37.2987 179.605 37.4614C179.239 37.6242 178.962 37.8439 178.775 38.1206C178.588 38.3892 178.494 38.6862 178.494 39.0117C178.494 39.2803 178.567 39.5244 178.714 39.7441C178.868 39.9557 179.084 40.1551 179.361 40.3423C179.646 40.5295 179.987 40.7085 180.386 40.8794C180.793 41.0503 181.249 41.2171 181.753 41.3799C182.697 41.681 183.536 42.0187 184.268 42.3931C185.009 42.7593 185.631 43.1784 186.136 43.6504C186.648 44.1143 187.035 44.6432 187.295 45.2373C187.564 45.8314 187.698 46.5028 187.698 47.2515C187.698 48.049 187.544 48.757 187.234 49.3755C186.925 49.994 186.482 50.5189 185.904 50.9502C185.326 51.3734 184.634 51.6948 183.829 51.9146C183.023 52.1343 182.124 52.2441 181.131 52.2441C180.219 52.2441 179.32 52.1302 178.433 51.9023C177.554 51.6663 176.757 51.3083 176.041 50.8281C175.324 50.3398 174.751 49.7173 174.319 48.9604C173.896 48.1955 173.685 47.2881 173.685 46.2383H177.981C177.981 46.7591 178.051 47.1986 178.189 47.5566C178.327 47.9147 178.531 48.2036 178.799 48.4233C179.068 48.6349 179.397 48.7896 179.788 48.8872C180.179 48.9767 180.626 49.0215 181.131 49.0215C181.676 49.0215 182.116 48.9442 182.449 48.7896C182.783 48.6268 183.027 48.4152 183.182 48.1548C183.336 47.8862 183.414 47.5933 183.414 47.2759ZM198.514 34.2266V52H194.229V34.2266H198.514ZM203.86 34.2266V37.5347H189.004V34.2266H203.86ZM202.603 50.0713C202.603 49.4854 202.815 48.9971 203.238 48.6064C203.661 48.2077 204.206 48.0083 204.874 48.0083C205.549 48.0083 206.094 48.2077 206.509 48.6064C206.932 48.9971 207.144 49.4854 207.144 50.0713C207.144 50.6572 206.932 51.1496 206.509 51.5483C206.094 51.939 205.549 52.1343 204.874 52.1343C204.206 52.1343 203.661 51.939 203.238 51.5483C202.815 51.1496 202.603 50.6572 202.603 50.0713ZM214.2 50.3887L217.74 34.2266H219.852L220.999 35.606L217.227 52H214.896L214.2 50.3887ZM213.26 34.2266L216.25 50.5107L215.481 52H212.784L209.012 34.2266H213.26ZM222.94 50.4253L225.906 34.2266H230.142L226.37 52H223.685L222.94 50.4253ZM221.377 34.2266L225.003 50.4863L224.271 52H221.939L218.082 35.5815L219.278 34.2266H221.377ZM246.866 42.7593V43.4795C246.866 44.8385 246.674 46.0592 246.292 47.1416C245.918 48.2158 245.385 49.1354 244.693 49.9004C244.001 50.6572 243.183 51.2391 242.239 51.646C241.295 52.0448 240.254 52.2441 239.114 52.2441C237.967 52.2441 236.917 52.0448 235.965 51.646C235.021 51.2391 234.199 50.6572 233.499 49.9004C232.807 49.1354 232.27 48.2158 231.888 47.1416C231.513 46.0592 231.326 44.8385 231.326 43.4795V42.7593C231.326 41.4002 231.513 40.1795 231.888 39.0972C232.27 38.0148 232.803 37.0952 233.487 36.3384C234.179 35.5734 234.996 34.9915 235.94 34.5928C236.893 34.1859 237.942 33.9824 239.09 33.9824C240.229 33.9824 241.271 34.1859 242.215 34.5928C243.167 34.9915 243.989 35.5734 244.681 36.3384C245.372 37.0952 245.91 38.0148 246.292 39.0972C246.674 40.1795 246.866 41.4002 246.866 42.7593ZM242.52 43.4795V42.7349C242.52 41.856 242.443 41.0828 242.288 40.4155C242.142 39.7401 241.922 39.1745 241.629 38.7188C241.336 38.263 240.974 37.9212 240.542 37.6934C240.119 37.4574 239.635 37.3394 239.09 37.3394C238.52 37.3394 238.024 37.4574 237.601 37.6934C237.177 37.9212 236.823 38.263 236.539 38.7188C236.254 39.1745 236.038 39.7401 235.892 40.4155C235.753 41.0828 235.684 41.856 235.684 42.7349V43.4795C235.684 44.3503 235.753 45.1234 235.892 45.7988C236.038 46.4661 236.254 47.0317 236.539 47.4956C236.832 47.9595 237.19 48.3094 237.613 48.5454C238.044 48.7814 238.545 48.8994 239.114 48.8994C239.66 48.8994 240.144 48.7814 240.567 48.5454C240.99 48.3094 241.344 47.9595 241.629 47.4956C241.922 47.0317 242.142 46.4661 242.288 45.7988C242.443 45.1234 242.52 44.3503 242.52 43.4795ZM249.087 34.2266H256.082C257.449 34.2266 258.637 34.43 259.646 34.8369C260.656 35.2438 261.433 35.846 261.978 36.6436C262.531 37.4411 262.808 38.4258 262.808 39.5977C262.808 40.6149 262.649 41.4653 262.332 42.1489C262.015 42.8325 261.571 43.3981 261.001 43.8457C260.44 44.2852 259.785 44.6473 259.036 44.9321L257.632 45.7256H251.761L251.736 42.4175H256.082C256.627 42.4175 257.079 42.3198 257.437 42.1245C257.795 41.9292 258.064 41.6525 258.243 41.2944C258.43 40.9282 258.523 40.4928 258.523 39.9883C258.523 39.4756 258.43 39.0361 258.243 38.6699C258.056 38.3037 257.779 38.0229 257.413 37.8276C257.055 37.6323 256.611 37.5347 256.082 37.5347H253.372V52H249.087V34.2266ZM258.816 52L254.886 44.1387L259.427 44.1143L263.406 51.8169V52H258.816ZM277.139 48.7041V52H268.155V48.7041H277.139ZM269.681 34.2266V52H265.396V34.2266H269.681ZM284.72 52H280.777L280.801 48.7041H284.72C285.534 48.7041 286.221 48.5088 286.783 48.1182C287.352 47.7275 287.784 47.1457 288.077 46.3726C288.378 45.5913 288.528 44.631 288.528 43.4917V42.7227C288.528 41.8682 288.443 41.1195 288.272 40.4766C288.109 39.8255 287.865 39.2843 287.54 38.853C287.214 38.4136 286.807 38.084 286.319 37.8643C285.839 37.6445 285.285 37.5347 284.659 37.5347H280.704V34.2266H284.659C285.863 34.2266 286.966 34.4341 287.967 34.8491C288.976 35.256 289.847 35.842 290.579 36.6069C291.32 37.3638 291.889 38.263 292.288 39.3047C292.695 40.3382 292.898 41.4857 292.898 42.7471V43.4917C292.898 44.745 292.695 45.8924 292.288 46.9341C291.889 47.9757 291.324 48.875 290.591 49.6318C289.859 50.3887 288.992 50.9746 287.991 51.3896C286.998 51.7965 285.908 52 284.72 52ZM283.23 34.2266V52H278.946V34.2266H283.23Z" fill="black"/>
<rect x="5.5" y="5.5" width="379" height="833" stroke="black"/>
<rect x="5.5" y="5.5" width="379" height="72" stroke="black"/>
<rect x="19.5" y="21.5" width="40" height="40" fill="#FDFBF7" stroke="black"/>
<rect x="21.7286" y="23.7286" width="35.5429" height="35.5429" fill="#FDFBF7" stroke="black"/>
<path d="M28.6667 35.3333C28.2985 35.3333 28 35.0349 28 34.6667C28 34.2985 28.2985 34 28.6667 34H51.3333C51.7015 34 52 34.2985 52 34.6667C52 35.0349 51.7015 35.3333 51.3333 35.3333H28.6667ZM28.6667 42C28.2985 42 28 41.7015 28 41.3333C28 40.9651 28.2985 40.6667 28.6667 40.6667H51.3333C51.7015 40.6667 52 40.9651 52 41.3333C52 41.7015 51.7015 42 51.3333 42H28.6667ZM28.6667 48.6667C28.2985 48.6667 28 48.3682 28 48C28 47.6318 28.2985 47.3333 28.6667 47.3333H51.3333C51.7015 47.3333 52 47.6318 52 48C52 48.3682 51.7015 48.6667 51.3333 48.6667H28.6667Z" fill="black"/>
</svg>
