<svg width="1282" height="844" viewBox="0 0 1282 844" fill="none" xmlns="http://www.w3.org/2000/svg">
<rect width="1282" height="844" fill="#D0D0D0"/>
<path d="M117.09 34.6719V56H111.963V34.6719H117.09ZM127.637 56H122.905L122.935 52.0449H127.637C128.613 52.0449 129.438 51.8105 130.112 51.3418C130.796 50.873 131.313 50.1748 131.665 49.2471C132.026 48.3096 132.207 47.1572 132.207 45.79V44.8672C132.207 43.8418 132.104 42.9434 131.899 42.1719C131.704 41.3906 131.411 40.7412 131.021 40.2236C130.63 39.6963 130.142 39.3008 129.556 39.0371C128.979 38.7734 128.315 38.6416 127.563 38.6416H122.817V34.6719H127.563C129.009 34.6719 130.332 34.9209 131.533 35.4189C132.744 35.9072 133.789 36.6104 134.668 37.5283C135.557 38.4365 136.24 39.5156 136.719 40.7656C137.207 42.0059 137.451 43.3828 137.451 44.8965V45.79C137.451 47.2939 137.207 48.6709 136.719 49.9209C136.24 51.1709 135.562 52.25 134.683 53.1582C133.804 54.0664 132.764 54.7695 131.562 55.2676C130.371 55.7559 129.062 56 127.637 56ZM125.85 34.6719V56H120.708V34.6719H125.85ZM154.81 52.0449V56H143.442V52.0449H154.81ZM145.273 34.6719V56H140.132V34.6719H145.273ZM153.345 43.1387V46.9619H143.442V43.1387H153.345ZM154.854 34.6719V38.6416H143.442V34.6719H154.854ZM165.957 39.1543L160.757 56H155.234L163.071 34.6719H166.572L165.957 39.1543ZM170.264 56L165.049 39.1543L164.375 34.6719H167.92L175.801 56H170.264ZM170.059 48.0459V52.0156H159.116V48.0459H170.059ZM191.46 52.0449V56H180.679V52.0449H191.46ZM182.51 34.6719V56H177.368V34.6719H182.51ZM199.092 34.6719V56H193.965V34.6719H199.092ZM213.696 50.3311C213.696 49.999 213.647 49.7012 213.55 49.4375C213.452 49.1641 213.271 48.9102 213.008 48.6758C212.744 48.4414 212.363 48.207 211.865 47.9727C211.377 47.7285 210.732 47.4746 209.932 47.2109C208.994 46.8984 208.091 46.5469 207.222 46.1562C206.353 45.7559 205.576 45.292 204.893 44.7646C204.209 44.2275 203.667 43.6025 203.267 42.8896C202.866 42.167 202.666 41.3271 202.666 40.3701C202.666 39.4521 202.871 38.627 203.281 37.8945C203.691 37.1523 204.263 36.5225 204.995 36.0049C205.737 35.4775 206.606 35.0771 207.603 34.8037C208.599 34.5205 209.688 34.3789 210.869 34.3789C212.432 34.3789 213.809 34.6523 215 35.1992C216.201 35.7363 217.139 36.5029 217.812 37.499C218.496 38.4854 218.838 39.6523 218.838 41H213.726C213.726 40.4629 213.613 39.9893 213.389 39.5791C213.174 39.1689 212.847 38.8467 212.407 38.6123C211.968 38.3779 211.416 38.2607 210.752 38.2607C210.107 38.2607 209.565 38.3584 209.126 38.5537C208.687 38.749 208.354 39.0127 208.13 39.3447C207.905 39.667 207.793 40.0234 207.793 40.4141C207.793 40.7363 207.881 41.0293 208.057 41.293C208.242 41.5469 208.501 41.7861 208.833 42.0107C209.175 42.2354 209.585 42.4502 210.063 42.6553C210.552 42.8604 211.099 43.0605 211.704 43.2559C212.837 43.6172 213.843 44.0225 214.722 44.4717C215.61 44.9111 216.357 45.4141 216.963 45.9805C217.578 46.5371 218.042 47.1719 218.354 47.8848C218.677 48.5977 218.838 49.4033 218.838 50.3018C218.838 51.2588 218.652 52.1084 218.281 52.8506C217.91 53.5928 217.378 54.2227 216.685 54.7402C215.991 55.248 215.161 55.6338 214.194 55.8975C213.228 56.1611 212.148 56.293 210.957 56.293C209.863 56.293 208.784 56.1562 207.72 55.8828C206.665 55.5996 205.708 55.1699 204.849 54.5938C203.989 54.0078 203.301 53.2607 202.783 52.3525C202.275 51.4346 202.021 50.3457 202.021 49.0859H207.178C207.178 49.7109 207.261 50.2383 207.427 50.668C207.593 51.0977 207.837 51.4443 208.159 51.708C208.481 51.9619 208.877 52.1475 209.346 52.2646C209.814 52.3721 210.352 52.4258 210.957 52.4258C211.611 52.4258 212.139 52.333 212.539 52.1475C212.939 51.9521 213.232 51.6982 213.418 51.3857C213.604 51.0635 213.696 50.7119 213.696 50.3311ZM231.816 34.6719V56H226.675V34.6719H231.816ZM238.232 34.6719V38.6416H220.405V34.6719H238.232ZM236.724 53.6855C236.724 52.9824 236.978 52.3965 237.485 51.9277C237.993 51.4492 238.647 51.21 239.448 51.21C240.259 51.21 240.913 51.4492 241.411 51.9277C241.919 52.3965 242.173 52.9824 242.173 53.6855C242.173 54.3887 241.919 54.9795 241.411 55.458C240.913 55.9268 240.259 56.1611 239.448 56.1611C238.647 56.1611 237.993 55.9268 237.485 55.458C236.978 54.9795 236.724 54.3887 236.724 53.6855ZM250.64 54.0664L254.888 34.6719H257.422L258.799 36.3271L254.272 56H251.475L250.64 54.0664ZM249.512 34.6719L253.101 54.2129L252.178 56H248.94L244.414 34.6719H249.512ZM261.128 54.1104L264.688 34.6719H269.771L265.244 56H262.021L261.128 54.1104ZM259.253 34.6719L263.604 54.1836L262.725 56H259.927L255.298 36.2979L256.733 34.6719H259.253ZM289.839 44.9111V45.7754C289.839 47.4062 289.609 48.8711 289.15 50.1699C288.701 51.459 288.062 52.5625 287.231 53.4805C286.401 54.3887 285.42 55.0869 284.287 55.5752C283.154 56.0537 281.904 56.293 280.537 56.293C279.16 56.293 277.9 56.0537 276.758 55.5752C275.625 55.0869 274.639 54.3887 273.799 53.4805C272.969 52.5625 272.324 51.459 271.865 50.1699C271.416 48.8711 271.191 47.4062 271.191 45.7754V44.9111C271.191 43.2803 271.416 41.8154 271.865 40.5166C272.324 39.2178 272.964 38.1143 273.784 37.2061C274.614 36.2881 275.596 35.5898 276.729 35.1113C277.871 34.623 279.131 34.3789 280.508 34.3789C281.875 34.3789 283.125 34.623 284.258 35.1113C285.4 35.5898 286.387 36.2881 287.217 37.2061C288.047 38.1143 288.691 39.2178 289.15 40.5166C289.609 41.8154 289.839 43.2803 289.839 44.9111ZM284.624 45.7754V44.8818C284.624 43.8271 284.531 42.8994 284.346 42.0986C284.17 41.2881 283.906 40.6094 283.555 40.0625C283.203 39.5156 282.769 39.1055 282.251 38.832C281.743 38.5488 281.162 38.4072 280.508 38.4072C279.824 38.4072 279.229 38.5488 278.721 38.832C278.213 39.1055 277.788 39.5156 277.446 40.0625C277.104 40.6094 276.846 41.2881 276.67 42.0986C276.504 42.8994 276.421 43.8271 276.421 44.8818V45.7754C276.421 46.8203 276.504 47.748 276.67 48.5586C276.846 49.3594 277.104 50.0381 277.446 50.5947C277.798 51.1514 278.228 51.5713 278.735 51.8545C279.253 52.1377 279.854 52.2793 280.537 52.2793C281.191 52.2793 281.772 52.1377 282.28 51.8545C282.788 51.5713 283.213 51.1514 283.555 50.5947C283.906 50.0381 284.17 49.3594 284.346 48.5586C284.531 47.748 284.624 46.8203 284.624 45.7754ZM292.505 34.6719H300.898C302.539 34.6719 303.965 34.916 305.176 35.4043C306.387 35.8926 307.319 36.6152 307.974 37.5723C308.638 38.5293 308.97 39.7109 308.97 41.1172C308.97 42.3379 308.779 43.3584 308.398 44.1787C308.018 44.999 307.485 45.6777 306.802 46.2148C306.128 46.7422 305.342 47.1768 304.443 47.5186L302.759 48.4707H295.713L295.684 44.501H300.898C301.553 44.501 302.095 44.3838 302.524 44.1494C302.954 43.915 303.276 43.583 303.491 43.1533C303.716 42.7139 303.828 42.1914 303.828 41.5859C303.828 40.9707 303.716 40.4434 303.491 40.0039C303.267 39.5645 302.935 39.2275 302.495 38.9932C302.065 38.7588 301.533 38.6416 300.898 38.6416H297.646V56H292.505V34.6719ZM304.18 56L299.463 46.5664L304.912 46.5371L309.688 55.7803V56H304.18ZM326.167 52.0449V56H315.386V52.0449H326.167ZM317.217 34.6719V56H312.075V34.6719H317.217ZM335.264 56H330.532L330.562 52.0449H335.264C336.24 52.0449 337.065 51.8105 337.739 51.3418C338.423 50.873 338.94 50.1748 339.292 49.2471C339.653 48.3096 339.834 47.1572 339.834 45.79V44.8672C339.834 43.8418 339.731 42.9434 339.526 42.1719C339.331 41.3906 339.038 40.7412 338.647 40.2236C338.257 39.6963 337.769 39.3008 337.183 39.0371C336.606 38.7734 335.942 38.6416 335.19 38.6416H330.444V34.6719H335.19C336.636 34.6719 337.959 34.9209 339.16 35.4189C340.371 35.9072 341.416 36.6104 342.295 37.5283C343.184 38.4365 343.867 39.5156 344.346 40.7656C344.834 42.0059 345.078 43.3828 345.078 44.8965V45.79C345.078 47.2939 344.834 48.6709 344.346 49.9209C343.867 51.1709 343.188 52.25 342.31 53.1582C341.431 54.0664 340.391 54.7695 339.189 55.2676C337.998 55.7559 336.689 56 335.264 56ZM333.477 34.6719V56H328.335V34.6719H333.477Z" fill="black"/>
<rect x="5.5" y="5.5" width="1271" height="833" stroke="black"/>
<rect x="5.5" y="5.5" width="1271" height="81" stroke="black"/>
<rect x="24.5" y="17.5" width="56" height="56" fill="#FDFBF7" stroke="black"/>
<rect x="27.6429" y="20.6429" width="49.7143" height="49.7143" fill="#FDFBF7" stroke="black"/>
<path d="M37.2222 36.8034C36.703 36.8034 36.282 36.3825 36.282 35.8633C36.282 35.344 36.703 34.9231 37.2222 34.9231H69.188C69.7073 34.9231 70.1282 35.344 70.1282 35.8633C70.1282 36.3825 69.7073 36.8034 69.188 36.8034H37.2222ZM37.2222 46.2051C36.703 46.2051 36.282 45.7842 36.282 45.265C36.282 44.7457 36.703 44.3248 37.2222 44.3248H69.188C69.7073 44.3248 70.1282 44.7457 70.1282 45.265C70.1282 45.7842 69.7073 46.2051 69.188 46.2051H37.2222ZM37.2222 55.6069C36.703 55.6069 36.282 55.1859 36.282 54.6667C36.282 54.1474 36.703 53.7265 37.2222 53.7265H69.188C69.7073 53.7265 70.1282 54.1474 70.1282 54.6667C70.1282 55.1859 69.7073 55.6069 69.188 55.6069H37.2222Z" fill="black"/>
</svg>
