<svg width="157" height="37" viewBox="0 0 157 37" fill="none" xmlns="http://www.w3.org/2000/svg">
<rect x="0.5" y="0.5" width="156" height="36" fill="#B5B5B5" stroke="black"/>
<rect x="4.5" y="4.5" width="148" height="28" fill="#B5B5B5" stroke="black"/>
<path d="M43.3477 12.4971H51.0015V13.9985H44.8491V17.0015H50.1006V18.5029H44.8491V23H43.3477V12.4971ZM59.7026 21.5571C59.7026 21.7573 59.6636 21.9453 59.5854 22.1211C59.5122 22.2969 59.4097 22.4507 59.2778 22.5825C59.1509 22.7095 58.9995 22.812 58.8237 22.8901C58.6528 22.9634 58.4673 23 58.2671 23H54.3926C54.1973 23 54.0117 22.9634 53.8359 22.8901C53.6602 22.812 53.5063 22.7095 53.3745 22.5825C53.2476 22.4507 53.145 22.2969 53.0669 22.1211C52.9937 21.9453 52.957 21.7573 52.957 21.5571V16.6426C52.957 16.4424 52.9937 16.2544 53.0669 16.0786C53.145 15.9028 53.2476 15.7515 53.3745 15.6245C53.5063 15.4927 53.6602 15.3901 53.8359 15.3169C54.0117 15.2388 54.1973 15.1997 54.3926 15.1997H58.2671C58.4673 15.1997 58.6528 15.2388 58.8237 15.3169C58.9995 15.3901 59.1509 15.4927 59.2778 15.6245C59.4097 15.7515 59.5122 15.9028 59.5854 16.0786C59.6636 16.2544 59.7026 16.4424 59.7026 16.6426V21.5571ZM54.3926 16.6426V21.5571H58.2671V16.6426H54.3926ZM63.5479 16.6426V23H62.1123V15.1997H63.5479V16.5767C63.5576 16.3862 63.6016 16.208 63.6797 16.042C63.7578 15.8711 63.8604 15.7246 63.9873 15.6025C64.1191 15.4756 64.2705 15.3779 64.4414 15.3096C64.6123 15.2363 64.7954 15.1997 64.9907 15.1997H66.5215C66.7217 15.1997 66.9072 15.2388 67.0781 15.3169C67.2539 15.3901 67.4077 15.4927 67.5396 15.6245C67.6714 15.7515 67.7739 15.9028 67.8472 16.0786C67.9253 16.2544 67.9644 16.4424 67.9644 16.6426V17.9609H66.5215V16.6426H63.5479ZM71.3774 23L68.8579 15.1997H70.3154L72.1611 21.0811L73.8823 15.1997H75.3545L77.0757 21.0811L78.9214 15.1997H80.3789L77.8594 23H76.3579L74.6147 17.2725L72.8789 23H71.3774ZM81.8877 19.5942C81.8877 19.394 81.9243 19.2085 81.9976 19.0376C82.0757 18.8618 82.1782 18.708 82.3052 18.5762C82.437 18.4443 82.5908 18.3418 82.7666 18.2686C82.9424 18.1904 83.1279 18.1514 83.3232 18.1514H87.0439V16.6426H82.3345V15.1997H87.0439C87.2441 15.1997 87.4321 15.2388 87.6079 15.3169C87.7837 15.3901 87.9351 15.4927 88.062 15.6245C88.1938 15.7515 88.2964 15.9028 88.3696 16.0786C88.4478 16.2544 88.4868 16.4424 88.4868 16.6426V23H87.0439V21.6816C87.0293 21.8623 86.9805 22.0332 86.8975 22.1943C86.8145 22.3555 86.707 22.4971 86.5752 22.6191C86.4482 22.7363 86.3018 22.8291 86.1357 22.8975C85.9697 22.9658 85.7939 23 85.6084 23H83.3232C83.1279 23 82.9424 22.9634 82.7666 22.8901C82.5908 22.812 82.437 22.7095 82.3052 22.5825C82.1782 22.4507 82.0757 22.2969 81.9976 22.1211C81.9243 21.9453 81.8877 21.7573 81.8877 21.5571V19.5942ZM83.3232 21.5571H87.0439V19.5942H83.3232V21.5571ZM92.332 16.6426V23H90.8965V15.1997H92.332V16.5767C92.3418 16.3862 92.3857 16.208 92.4639 16.042C92.542 15.8711 92.6445 15.7246 92.7715 15.6025C92.9033 15.4756 93.0547 15.3779 93.2256 15.3096C93.3965 15.2363 93.5796 15.1997 93.7749 15.1997H95.3057C95.5059 15.1997 95.6914 15.2388 95.8623 15.3169C96.0381 15.3901 96.1919 15.4927 96.3237 15.6245C96.4556 15.7515 96.5581 15.9028 96.6313 16.0786C96.7095 16.2544 96.7485 16.4424 96.7485 16.6426V17.9609H95.3057V16.6426H92.332ZM98.543 16.6426C98.543 16.4424 98.5796 16.2544 98.6528 16.0786C98.731 15.9028 98.8335 15.7515 98.9604 15.6245C99.0923 15.4927 99.2461 15.3901 99.4219 15.3169C99.5977 15.2388 99.7832 15.1997 99.9785 15.1997H104V12.1968H105.442V23H104V21.6816C103.985 21.8623 103.936 22.0332 103.853 22.1943C103.77 22.3555 103.663 22.4971 103.531 22.6191C103.404 22.7363 103.257 22.8291 103.091 22.8975C102.925 22.9658 102.75 23 102.564 23H99.9785C99.7832 23 99.5977 22.9634 99.4219 22.8901C99.2461 22.812 99.0923 22.7095 98.9604 22.5825C98.8335 22.4507 98.731 22.2969 98.6528 22.1211C98.5796 21.9453 98.543 21.7573 98.543 21.5571V16.6426ZM99.9785 21.5571H104V16.6426H99.9785V21.5571ZM112.554 21.5571V19.748H109.134C108.934 19.748 108.746 19.7114 108.57 19.6382C108.394 19.5601 108.24 19.4575 108.108 19.3306C107.981 19.1987 107.879 19.0449 107.801 18.8691C107.728 18.6934 107.691 18.5054 107.691 18.3052V16.6426C107.691 16.4424 107.728 16.2544 107.801 16.0786C107.879 15.9028 107.981 15.7515 108.108 15.6245C108.24 15.4927 108.394 15.3901 108.57 15.3169C108.746 15.2388 108.934 15.1997 109.134 15.1997H113.697V16.6426H109.134V18.3052H112.554C112.754 18.3052 112.94 18.3442 113.111 18.4224C113.287 18.4956 113.44 18.5981 113.572 18.73C113.704 18.8569 113.807 19.0083 113.88 19.1841C113.958 19.3599 113.997 19.5479 113.997 19.748V21.5571C113.997 21.7573 113.958 21.9453 113.88 22.1211C113.807 22.2969 113.704 22.4507 113.572 22.5825C113.44 22.7095 113.287 22.812 113.111 22.8901C112.94 22.9634 112.754 23 112.554 23H107.691V21.5571H112.554Z" fill="black"/>
</svg>
